<svg width="24" height="24" viewBox="0 0 24 24" fill="none" xmlns="http://www.w3.org/2000/svg">
<path d="M8.16346 10.9038L8.16346 19.125M8.16346 4.875V7.06731M15.8365 16.9327V19.125M15.8365 4.875V13.0962M6.375 10.9039H9.95192C10.7803 10.9039 11.4519 10.2323 11.4519 9.40386V8.56732C11.4519 7.73889 10.7803 7.06732 9.95192 7.06732H6.375C5.54657 7.06732 4.875 7.73889 4.875 8.56732V9.40386C4.875 10.2323 5.54657 10.9039 6.375 10.9039ZM14.0481 16.9327H17.625C18.4534 16.9327 19.125 16.2611 19.125 15.4327V14.5962C19.125 13.7677 18.4534 13.0962 17.625 13.0962H14.0481C13.2196 13.0962 12.5481 13.7677 12.5481 14.5962V15.4327C12.5481 16.2611 13.2196 16.9327 14.0481 16.9327Z" stroke="#9590D2" stroke-linecap="round"/>
</svg>
