<svg width="10" height="10" viewBox="0 0 10 10" fill="none" xmlns="http://www.w3.org/2000/svg">
<path d="M10.0002 9.28296L7.26365 6.54623C7.81625 5.83782 8.11919 4.9726 8.11919 4.05968C8.11919 2.97524 7.69649 1.95575 6.92976 1.18949C6.16354 0.422206 5.1441 0 4.05972 0C2.97533 0 1.95589 0.422206 1.18967 1.18949C0.422936 1.95575 0.000244141 2.97524 0.000244141 4.05968C0.000244141 5.14412 0.422936 6.16361 1.18967 6.92987C1.95589 7.69715 2.97533 8.11936 4.05972 8.11936C4.97259 8.11936 5.83776 7.81691 6.54614 7.26378L9.28273 10L10.0002 9.28296ZM4.05972 7.10444C3.2463 7.10444 2.4821 6.78778 1.90718 6.21283C1.33175 5.63788 1.01511 4.87314 1.01511 4.05968C1.01511 3.24673 1.33175 2.48199 1.90718 1.90703C2.4821 1.33157 3.2463 1.01492 4.05972 1.01492C4.87313 1.01492 5.63733 1.33157 6.21225 1.90703C6.78768 2.48199 7.10432 3.24673 7.10432 4.05968C7.10432 4.87314 6.78768 5.63788 6.21225 6.21283C5.63733 6.78778 4.87313 7.10444 4.05972 7.10444Z" fill="white"/>
</svg>
