<svg width="24" height="17" viewBox="0 0 24 17" fill="none" xmlns="http://www.w3.org/2000/svg">
<path fill-rule="evenodd" clip-rule="evenodd" d="M8.47054 11.2C10.0299 11.2 11.294 9.9464 11.294 8.4C11.294 6.8536 10.0299 5.6 8.47054 5.6C6.91115 5.6 5.64702 6.8536 5.64702 8.4C5.64702 9.9464 6.91115 11.2 8.47054 11.2ZM8.47054 16.8C13.1487 16.8 16.9411 13.0392 16.9411 8.4C16.9411 3.76081 13.1487 0 8.47054 0C3.79239 0 0 3.76081 0 8.4C0 13.0392 3.79239 16.8 8.47054 16.8Z" fill="black"/>
<path d="M24 2.8C24 4.3464 22.7359 5.6 21.1765 5.6C19.6171 5.6 18.353 4.3464 18.353 2.8C18.353 1.2536 19.6171 0 21.1765 0C22.7359 0 24 1.2536 24 2.8Z" fill="black"/>
</svg>
