<svg width="14" height="16" viewBox="0 0 14 16" fill="none" xmlns="http://www.w3.org/2000/svg">
<path d="M7.00024 0.882141C3.14044 0.882141 0.000244141 4.07592 0.000244141 7.99999C0.000244141 11.9255 3.14044 15.1178 7.00024 15.1178C10.86 15.1178 14.0002 11.9255 14.0002 7.99999C14.0002 4.07592 10.86 0.882141 7.00024 0.882141ZM7.00024 12.4486C6.51724 12.4486 6.12524 12.0508 6.12524 11.5589C6.12524 11.0678 6.51724 10.6692 7.00024 10.6692C7.48324 10.6692 7.87524 11.0678 7.87524 11.5589C7.87524 12.0508 7.48324 12.4486 7.00024 12.4486ZM7.70024 9.33458V10.1353H6.30024V7.99999H7.00024C7.77304 7.99999 8.40024 7.36152 8.40024 6.57642C8.40024 5.79061 7.77304 5.15285 7.00024 5.15285C6.22744 5.15285 5.60024 5.79061 5.60024 6.57642H4.20024C4.20024 5.00693 5.45674 3.72928 7.00024 3.72928C8.54374 3.72928 9.80024 5.00693 9.80024 6.57642C9.80024 7.90105 8.90634 9.01713 7.70024 9.33458Z" fill="white"/>
</svg>
